<svg xmlns="http://www.w3.org/2000/svg" viewBox="0 0 96 96" role="img" aria-label="LandingBrief">
  <defs>
    <linearGradient id="bg" x1="18" y1="10" x2="78" y2="88" gradientUnits="userSpaceOnUse">
      <stop offset="0" stop-color="#23364b" />
      <stop offset="0.5" stop-color="#122131" />
      <stop offset="1" stop-color="#09131d" />
    </linearGradient>
    <linearGradient id="glass" x1="24" y1="22" x2="72" y2="74" gradientUnits="userSpaceOnUse">
      <stop offset="0" stop-color="#2e4560" stop-opacity="0.95" />
      <stop offset="1" stop-color="#152434" stop-opacity="0.98" />
    </linearGradient>
    <linearGradient id="sky" x1="28" y1="26" x2="68" y2="60" gradientUnits="userSpaceOnUse">
      <stop offset="0" stop-color="#d7e7f2" />
      <stop offset="0.55" stop-color="#90acc2" />
      <stop offset="1" stop-color="#426078" />
    </linearGradient>
  </defs>

  <rect width="96" height="96" rx="28" fill="url(#bg)" />
  <rect x="7" y="7" width="82" height="82" rx="25" fill="none" stroke="#294055" stroke-width="1.5" />
  <circle cx="30" cy="24" r="18" fill="#9dc2d7" opacity="0.12" />
  <circle cx="70" cy="72" r="20" fill="#9dc2d7" opacity="0.08" />

  <rect x="24" y="16" width="48" height="64" rx="22" fill="url(#glass)" stroke="#36506b" stroke-width="2" />
  <rect x="28" y="20" width="40" height="56" rx="18" fill="#0b1723" />

  <path d="M28 47.5c5-3.4 10.8-5.1 17.2-5.1 10.8 0 17.5 4.8 22.8 10.6V24c-4.8 6.4-11.8 10.7-21.2 10.7-7.7 0-13.7-2.9-18.8-8.2v21Z" fill="url(#sky)" opacity="0.95" />
  <path d="M28 47.5c7.2-3.6 13.4-4.9 19.7-4.9 9 0 14.6 2.7 20.3 6.9" fill="none" stroke="#f3f7fb" stroke-opacity="0.78" stroke-width="1.25" />
  <path d="M37 58.5 48 46l9.2 5.9 7.8-13.4" fill="none" stroke="#f2f5f9" stroke-linecap="round" stroke-linejoin="round" stroke-width="4" />
  <circle cx="37" cy="58.5" r="2.5" fill="#f2f5f9" />
  <path d="M32 66.5h32" stroke="#c9d9e5" stroke-opacity="0.9" stroke-linecap="round" stroke-width="3" />
</svg>
